<?xml version="1.0" encoding="UTF-8"?> <svg xmlns="http://www.w3.org/2000/svg" viewBox="0 0 170.46 44.09"> <defs> <style>.cls-1,.cls-2{fill:#181716;}.cls-1{stroke:#181716;stroke-miterlimit:10;stroke-width:0.5px;}</style> </defs> <title>logo itea black</title> <g id="Layer_2" data-name="Layer 2"> <g id="Layer_1-2" data-name="Layer 1"> <path class="cls-1" d="M128.08.25H.25V43.84h170V.25Zm40.66,1.47V42.37H128.08V1.72Zm-42.12,0V42.37H86V1.72Zm-42.12,0V42.37H43.84V1.72Zm-42.12,0V42.37H1.72V1.72Z"></path> <rect class="cls-2" x="20.68" y="15.68" width="3.54" height="12.72"></rect> <polygon class="cls-2" points="62.28 28.4 65.81 28.4 65.81 18.77 69.62 18.77 69.62 15.69 58.46 15.69 58.46 18.77 62.28 18.77 62.28 28.4"></polygon> <polygon class="cls-2" points="111.43 25.41 104.37 25.41 104.37 23.39 111.43 23.39 111.43 20.61 104.37 20.61 104.37 18.68 111.43 18.68 111.43 15.69 100.88 15.69 100.88 28.4 111.43 28.4 111.43 25.41"></polygon> <path class="cls-2" d="M145.51,26.22h4.91l.93,2.27h3.78l-5.41-12.81h-3.4L140.89,28.5h3.71ZM148,19.86l1.42,3.62h-2.85Z"></path> </g> </g> </svg> 